<svg width="61" height="50" viewBox="0 0 61 50" fill="none" xmlns="http://www.w3.org/2000/svg">
<path d="M37.4257 24.4382C37.4257 16.7176 38.8406 9.95204 41.1898 5.12482C27.3817 13.0855 15.2734 13.5938 9.19824 13.9611C5.78224 14.1675 2.63694 16.3979 1.00146 19.8905C-0.331589 22.7376 -0.323592 26.0937 0.964321 28.9609C2.58733 32.5751 5.75106 34.9448 9.19824 34.9151C9.76893 34.91 10.4523 34.9187 11.2122 34.9446C9.98148 40.5013 13.1539 46.3801 18.8596 48.8609C20.6033 49.6191 22.4417 50.0001 24.2643 50.0001C25.6848 50.0001 27.0958 49.7686 28.4436 49.3017C31.5604 48.2233 33.9699 46.0244 35.2278 43.1119C35.5205 42.4345 35.7193 41.725 35.8707 41.005C37.6176 41.8147 39.3962 42.7265 41.195 43.7612C38.8428 38.9335 37.4257 32.1645 37.4257 24.4382ZM32.8958 42.0983C31.9247 44.3459 30.0495 46.0479 27.6145 46.891C25.1393 47.7475 22.3879 47.6156 19.8697 46.5198C15.1483 44.4675 12.5646 39.5837 13.7868 35.0977C18.6383 35.4927 25.6463 36.6776 33.4975 39.9576C33.3904 40.6938 33.1916 41.4135 32.8958 42.0983Z" fill="white"/>
<path d="M50.4836 0C46.2805 0 42.6637 5.74416 40.9801 14.0265C46.5932 14.1606 51.1207 18.7748 51.1207 24.4382C51.1207 30.1014 46.5931 34.7146 40.98 34.8487C42.6634 43.1311 46.2803 48.8757 50.4836 48.8757C56.2918 48.8757 61.0001 37.9343 61.0001 24.4378C61.0001 10.9412 56.2918 0 50.4836 0Z" fill="white"/>
</svg>
